<svg width="135" height="67" viewBox="0 0 135 67" fill="none" xmlns="http://www.w3.org/2000/svg">
<path fill-rule="evenodd" clip-rule="evenodd" d="M31.25 0C32.4004 0 33.3333 0.93275 33.3333 2.08333V20.8333H37.5V12.5C37.5 11.3494 38.4329 10.4167 39.5833 10.4167C40.7337 10.4167 41.6667 11.3494 41.6667 12.5V20.8333C45.1183 20.8333 47.9167 23.6315 47.9167 27.0833V31.25H58.3333C58.4512 31.25 58.5667 31.2596 58.6792 31.2783C59.5287 28.8362 61.8512 27.0833 64.5833 27.0833C68.035 27.0833 70.8333 29.8817 70.8333 33.3333C70.8333 36.785 68.035 39.5833 64.5833 39.5833C61.8512 39.5833 59.5287 37.8304 58.6792 35.3883C58.5667 35.4071 58.4512 35.4167 58.3333 35.4167H47.9167V39.5833C47.9167 43.035 45.1183 45.8333 41.6667 45.8333V64.5833C41.6667 65.7337 40.7337 66.6667 39.5833 66.6667C38.4329 66.6667 37.5 65.7337 37.5 64.5833V45.8333H33.3333V54.1667C33.3333 55.3171 32.4004 56.25 31.25 56.25C30.0996 56.25 29.1667 55.3171 29.1667 54.1667V45.8333C25.7149 45.8333 22.9167 43.035 22.9167 39.5833V35.4167H12.5C12.3822 35.4167 12.2668 35.4071 12.1544 35.3883C11.3045 37.8304 8.98196 39.5833 6.25 39.5833C2.79821 39.5833 0 36.785 0 33.3333C0 29.8817 2.79821 27.0833 6.25 27.0833C8.98196 27.0833 11.3045 28.8362 12.1544 31.2783C12.2668 31.2596 12.3822 31.25 12.5 31.25H22.9167V27.0833C22.9167 23.6315 25.7149 20.8333 29.1667 20.8333V2.08333C29.1667 0.93275 30.0996 0 31.25 0ZM41.6667 41.6667C42.8171 41.6667 43.75 40.7337 43.75 39.5833V27.0833C43.75 25.9329 42.8171 25 41.6667 25H29.1667C28.0162 25 27.0833 25.9329 27.0833 27.0833V39.5833C27.0833 40.7337 28.0162 41.6667 29.1667 41.6667H41.6667ZM6.25 31.25C5.09942 31.25 4.16667 32.1829 4.16667 33.3333C4.16667 34.4837 5.09942 35.4167 6.25 35.4167C7.40058 35.4167 8.33333 34.4837 8.33333 33.3333C8.33333 32.1829 7.40058 31.25 6.25 31.25ZM62.5 33.3333C62.5 32.1829 63.4329 31.25 64.5833 31.25C65.7337 31.25 66.6667 32.1829 66.6667 33.3333C66.6667 34.4837 65.7337 35.4167 64.5833 35.4167C63.4329 35.4167 62.5 34.4837 62.5 33.3333Z" fill="#090B24"/>
<path d="M73.4769 38H71.3675L75.2081 27.0909H77.6477L81.4936 38H79.3842L76.4705 29.3281H76.3853L73.4769 38ZM73.5462 33.7227H79.299V35.31H73.5462V33.7227ZM84.7735 27.0909V38H82.8453V27.0909H84.7735ZM90.3146 41.2386C89.6222 41.2386 89.0273 41.1445 88.5302 40.9563C88.033 40.7717 87.6335 40.5231 87.3317 40.2106C87.0298 39.8981 86.8203 39.5518 86.7031 39.1719L88.4396 38.7511C88.5178 38.9109 88.6314 39.0689 88.7805 39.2251C88.9297 39.3849 89.1303 39.5163 89.3825 39.6193C89.6381 39.7259 89.9595 39.7791 90.3466 39.7791C90.8935 39.7791 91.3462 39.646 91.7049 39.3796C92.0636 39.1168 92.2429 38.6836 92.2429 38.0799V36.5298H92.147C92.0476 36.7287 91.902 36.9329 91.7102 37.1424C91.522 37.3519 91.2717 37.5277 90.9592 37.6697C90.6502 37.8118 90.2614 37.8828 89.7926 37.8828C89.1641 37.8828 88.5941 37.7354 88.0827 37.4407C87.5749 37.1424 87.1701 36.6985 86.8683 36.109C86.57 35.516 86.4208 34.7738 86.4208 33.8825C86.4208 32.984 86.57 32.2259 86.8683 31.608C87.1701 30.9865 87.5767 30.516 88.0881 30.1964C88.5994 29.8732 89.1694 29.7116 89.7979 29.7116C90.2773 29.7116 90.6715 29.7933 90.9805 29.9567C91.293 30.1165 91.5415 30.31 91.7262 30.5373C91.9109 30.761 92.0511 30.9723 92.147 31.1712H92.2536V29.8182H94.1552V38.1332C94.1552 38.8327 93.9883 39.4116 93.6545 39.8697C93.3207 40.3278 92.8643 40.6705 92.2855 40.8977C91.7067 41.125 91.0497 41.2386 90.3146 41.2386ZM90.3306 36.37C90.739 36.37 91.087 36.2706 91.3746 36.0717C91.6623 35.8729 91.8807 35.587 92.0298 35.2141C92.179 34.8413 92.2536 34.3938 92.2536 33.8718C92.2536 33.3569 92.179 32.9059 92.0298 32.5188C91.8842 32.1317 91.6676 31.8317 91.38 31.6186C91.0959 31.402 90.7461 31.2937 90.3306 31.2937C89.9009 31.2937 89.5423 31.4055 89.2546 31.6293C88.967 31.853 88.7504 32.1602 88.6048 32.5508C88.4592 32.9379 88.3864 33.3782 88.3864 33.8718C88.3864 34.3725 88.4592 34.8111 88.6048 35.1875C88.7539 35.5604 88.9723 35.8516 89.2599 36.0611C89.5511 36.267 89.908 36.37 90.3306 36.37ZM99.7003 38.1598C98.9013 38.1598 98.2088 37.984 97.6229 37.6325C97.0369 37.2809 96.5824 36.7891 96.2592 36.157C95.9396 35.5249 95.7798 34.7862 95.7798 33.9411C95.7798 33.0959 95.9396 32.3555 96.2592 31.7198C96.5824 31.0842 97.0369 30.5906 97.6229 30.239C98.2088 29.8874 98.9013 29.7116 99.7003 29.7116C100.499 29.7116 101.192 29.8874 101.778 30.239C102.364 30.5906 102.816 31.0842 103.136 31.7198C103.459 32.3555 103.621 33.0959 103.621 33.9411C103.621 34.7862 103.459 35.5249 103.136 36.157C102.816 36.7891 102.364 37.2809 101.778 37.6325C101.192 37.984 100.499 38.1598 99.7003 38.1598ZM99.7109 36.6151C100.144 36.6151 100.506 36.4961 100.798 36.2582C101.089 36.0167 101.305 35.6935 101.447 35.2887C101.593 34.8839 101.666 34.4329 101.666 33.9357C101.666 33.435 101.593 32.9822 101.447 32.5774C101.305 32.169 101.089 31.8441 100.798 31.6026C100.506 31.3612 100.144 31.2404 99.7109 31.2404C99.267 31.2404 98.8977 31.3612 98.603 31.6026C98.3118 31.8441 98.0934 32.169 97.9478 32.5774C97.8058 32.9822 97.7347 33.435 97.7347 33.9357C97.7347 34.4329 97.8058 34.8839 97.9478 35.2887C98.0934 35.6935 98.3118 36.0167 98.603 36.2582C98.8977 36.4961 99.267 36.6151 99.7109 36.6151ZM105.343 38V27.0909H107.319V31.7092H112.374V27.0909H114.355V38H112.374V33.3658H107.319V38H105.343ZM121.634 34.5589V29.8182H123.563V38H121.693V36.5458H121.608C121.423 37.0039 121.119 37.3786 120.697 37.6697C120.278 37.9609 119.761 38.1065 119.147 38.1065C118.611 38.1065 118.136 37.9876 117.725 37.7496C117.316 37.5082 116.997 37.1584 116.766 36.7003C116.535 36.2386 116.419 35.6811 116.419 35.0277V29.8182H118.348V34.7294C118.348 35.2479 118.49 35.6598 118.774 35.9652C119.058 36.2706 119.431 36.4233 119.892 36.4233C120.177 36.4233 120.452 36.354 120.718 36.2156C120.984 36.0771 121.203 35.8711 121.373 35.5977C121.547 35.3207 121.634 34.9744 121.634 34.5589ZM125.631 38V27.0909H127.559V31.1712H127.639C127.738 30.9723 127.879 30.761 128.06 30.5373C128.241 30.31 128.486 30.1165 128.795 29.9567C129.104 29.7933 129.498 29.7116 129.977 29.7116C130.609 29.7116 131.179 29.8732 131.687 30.1964C132.199 30.516 132.603 30.9901 132.902 31.6186C133.203 32.2436 133.354 33.0107 133.354 33.9197C133.354 34.8182 133.207 35.5817 132.912 36.2102C132.618 36.8388 132.216 37.3182 131.708 37.6484C131.201 37.9787 130.625 38.1438 129.983 38.1438C129.514 38.1438 129.125 38.0657 128.816 37.9094C128.507 37.7532 128.259 37.565 128.07 37.3448C127.886 37.1211 127.742 36.9098 127.639 36.7109H127.527V38H125.631ZM127.522 33.9091C127.522 34.4382 127.596 34.9016 127.745 35.2994C127.898 35.6971 128.116 36.0078 128.401 36.2315C128.688 36.4517 129.036 36.5618 129.445 36.5618C129.871 36.5618 130.228 36.4482 130.515 36.2209C130.803 35.9901 131.02 35.6758 131.165 35.2781C131.314 34.8768 131.389 34.4205 131.389 33.9091C131.389 33.4013 131.316 32.9503 131.17 32.5561C131.025 32.1619 130.808 31.853 130.521 31.6293C130.233 31.4055 129.874 31.2937 129.445 31.2937C129.033 31.2937 128.683 31.402 128.395 31.6186C128.108 31.8352 127.889 32.1388 127.74 32.5295C127.594 32.9201 127.522 33.38 127.522 33.9091Z" fill="#090B24"/>
</svg>
