<svg width="384" height="24" viewBox="0 0 384 24" fill="none" xmlns="http://www.w3.org/2000/svg">
<circle cx="5" cy="5" r="5" fill="#D9D9D9"/>
<circle cx="199" cy="5" r="5" fill="#D9D9D9"/>
<circle cx="5" cy="5" r="5" fill="#D9D9D9"/>
<circle cx="199" cy="5" r="5" fill="#D9D9D9"/>
<circle cx="45" cy="5" r="5" fill="#D9D9D9"/>
<circle cx="239" cy="5" r="5" fill="#D9D9D9"/>
<circle cx="45" cy="5" r="5" fill="#D9D9D9"/>
<circle cx="239" cy="5" r="5" fill="#D9D9D9"/>
<circle cx="85" cy="5" r="5" fill="#D9D9D9"/>
<circle cx="279" cy="5" r="5" fill="#D9D9D9"/>
<circle cx="85" cy="5" r="5" fill="#D9D9D9"/>
<circle cx="279" cy="5" r="5" fill="#D9D9D9"/>
<circle cx="125" cy="5" r="5" fill="#D9D9D9"/>
<circle cx="319" cy="5" r="5" fill="#D9D9D9"/>
<circle cx="125" cy="5" r="5" fill="#D9D9D9"/>
<circle cx="319" cy="5" r="5" fill="#D9D9D9"/>
<circle cx="165" cy="5" r="5" fill="#D9D9D9"/>
<circle cx="359" cy="5" r="5" fill="#D9D9D9"/>
<circle cx="165" cy="5" r="5" fill="#D9D9D9"/>
<circle cx="359" cy="5" r="5" fill="#D9D9D9"/>
<circle cx="25" cy="5" r="5" fill="#D9D9D9"/>
<circle cx="219" cy="5" r="5" fill="#D9D9D9"/>
<circle cx="25" cy="5" r="5" fill="#D9D9D9"/>
<circle cx="219" cy="5" r="5" fill="#D9D9D9"/>
<circle cx="65" cy="5" r="5" fill="#D9D9D9"/>
<circle cx="259" cy="5" r="5" fill="#D9D9D9"/>
<circle cx="65" cy="5" r="5" fill="#D9D9D9"/>
<circle cx="259" cy="5" r="5" fill="#D9D9D9"/>
<circle cx="105" cy="5" r="5" fill="#D9D9D9"/>
<circle cx="299" cy="5" r="5" fill="#D9D9D9"/>
<circle cx="105" cy="5" r="5" fill="#D9D9D9"/>
<circle cx="299" cy="5" r="5" fill="#D9D9D9"/>
<circle cx="145" cy="5" r="5" fill="#D9D9D9"/>
<circle cx="339" cy="5" r="5" fill="#D9D9D9"/>
<circle cx="145" cy="5" r="5" fill="#D9D9D9"/>
<circle cx="339" cy="5" r="5" fill="#D9D9D9"/>
<circle cx="185" cy="5" r="5" fill="#D9D9D9"/>
<circle cx="379" cy="5" r="5" fill="#D9D9D9"/>
<circle cx="185" cy="5" r="5" fill="#D9D9D9"/>
<circle cx="379" cy="5" r="5" fill="#D9D9D9"/>
<circle cx="5" cy="19" r="5" fill="#D9D9D9"/>
<circle cx="199" cy="19" r="5" fill="#D9D9D9"/>
<circle cx="5" cy="19" r="5" fill="#D9D9D9"/>
<circle cx="199" cy="19" r="5" fill="#D9D9D9"/>
<circle cx="45" cy="19" r="5" fill="#D9D9D9"/>
<circle cx="239" cy="19" r="5" fill="#D9D9D9"/>
<circle cx="45" cy="19" r="5" fill="#D9D9D9"/>
<circle cx="239" cy="19" r="5" fill="#D9D9D9"/>
<circle cx="85" cy="19" r="5" fill="#D9D9D9"/>
<circle cx="279" cy="19" r="5" fill="#D9D9D9"/>
<circle cx="85" cy="19" r="5" fill="#D9D9D9"/>
<circle cx="279" cy="19" r="5" fill="#D9D9D9"/>
<circle cx="125" cy="19" r="5" fill="#D9D9D9"/>
<circle cx="319" cy="19" r="5" fill="#D9D9D9"/>
<circle cx="125" cy="19" r="5" fill="#D9D9D9"/>
<circle cx="319" cy="19" r="5" fill="#D9D9D9"/>
<circle cx="165" cy="19" r="5" fill="#D9D9D9"/>
<circle cx="359" cy="19" r="5" fill="#D9D9D9"/>
<circle cx="165" cy="19" r="5" fill="#D9D9D9"/>
<circle cx="359" cy="19" r="5" fill="#D9D9D9"/>
<circle cx="25" cy="19" r="5" fill="#D9D9D9"/>
<circle cx="219" cy="19" r="5" fill="#D9D9D9"/>
<circle cx="25" cy="19" r="5" fill="#D9D9D9"/>
<circle cx="219" cy="19" r="5" fill="#D9D9D9"/>
<circle cx="65" cy="19" r="5" fill="#D9D9D9"/>
<circle cx="259" cy="19" r="5" fill="#D9D9D9"/>
<circle cx="65" cy="19" r="5" fill="#D9D9D9"/>
<circle cx="259" cy="19" r="5" fill="#D9D9D9"/>
<circle cx="105" cy="19" r="5" fill="#D9D9D9"/>
<circle cx="299" cy="19" r="5" fill="#D9D9D9"/>
<circle cx="105" cy="19" r="5" fill="#D9D9D9"/>
<circle cx="299" cy="19" r="5" fill="#D9D9D9"/>
<circle cx="145" cy="19" r="5" fill="#D9D9D9"/>
<circle cx="339" cy="19" r="5" fill="#D9D9D9"/>
<circle cx="145" cy="19" r="5" fill="#D9D9D9"/>
<circle cx="339" cy="19" r="5" fill="#D9D9D9"/>
<circle cx="185" cy="19" r="5" fill="#D9D9D9"/>
<circle cx="379" cy="19" r="5" fill="#D9D9D9"/>
<circle cx="185" cy="19" r="5" fill="#D9D9D9"/>
<circle cx="379" cy="19" r="5" fill="#D9D9D9"/>
</svg>
