<svg width="364" height="325" viewBox="0 0 364 325" fill="none" xmlns="http://www.w3.org/2000/svg">
<rect width="364" height="325" fill="#090B24" fill-opacity="0.81"/>
<path d="M7.63668 41V40.038H10.1717V32.732H10.0807L7.79268 34.864L7.15568 34.175L9.56068 31.926H11.2637V40.038H13.6037V41H7.63668Z" fill="#D9D9D9" fill-opacity="0.83"/>
<path d="M25.6711 39.908H25.6191C25.5498 40.064 25.4631 40.22 25.3591 40.376C25.2638 40.5233 25.1425 40.6577 24.9951 40.779C24.8478 40.8917 24.6701 40.9827 24.4621 41.052C24.2541 41.1213 24.0115 41.156 23.7341 41.156C23.0408 41.156 22.4905 40.935 22.0831 40.493C21.6758 40.0423 21.4721 39.4097 21.4721 38.595V34.292H22.5121V38.413C22.5121 39.6177 23.0235 40.22 24.0461 40.22C24.2541 40.22 24.4535 40.194 24.6441 40.142C24.8435 40.09 25.0168 40.012 25.1641 39.908C25.3201 39.804 25.4415 39.674 25.5281 39.518C25.6235 39.3533 25.6711 39.1583 25.6711 38.933V34.292H26.7111V41H25.6711V39.908ZM30.9408 41.156C30.3168 41.156 29.7925 41.039 29.3678 40.805C28.9518 40.5623 28.5921 40.2417 28.2888 39.843L29.0298 39.245C29.2898 39.5743 29.5801 39.83 29.9008 40.012C30.2215 40.1853 30.5941 40.272 31.0188 40.272C31.4608 40.272 31.8031 40.1767 32.0458 39.986C32.2971 39.7953 32.4228 39.5267 32.4228 39.18C32.4228 38.92 32.3361 38.699 32.1628 38.517C31.9981 38.3263 31.6948 38.1963 31.2528 38.127L30.7198 38.049C30.4078 38.0057 30.1218 37.9407 29.8618 37.854C29.6018 37.7587 29.3721 37.6373 29.1728 37.49C28.9821 37.334 28.8305 37.1433 28.7178 36.918C28.6138 36.6927 28.5618 36.424 28.5618 36.112C28.5618 35.7827 28.6225 35.4967 28.7438 35.254C28.8651 35.0027 29.0298 34.7947 29.2378 34.63C29.4545 34.4653 29.7101 34.344 30.0048 34.266C30.2995 34.1793 30.6158 34.136 30.9538 34.136C31.4998 34.136 31.9548 34.2313 32.3188 34.422C32.6915 34.6127 33.0165 34.877 33.2938 35.215L32.6048 35.839C32.4575 35.631 32.2408 35.4447 31.9548 35.28C31.6688 35.1067 31.3091 35.02 30.8758 35.02C30.4425 35.02 30.1131 35.1153 29.8878 35.306C29.6711 35.488 29.5628 35.7393 29.5628 36.06C29.5628 36.3893 29.6711 36.6277 29.8878 36.775C30.1131 36.9223 30.4338 37.0307 30.8498 37.1L31.3698 37.178C32.1151 37.2907 32.6438 37.5073 32.9558 37.828C33.2678 38.14 33.4238 38.5517 33.4238 39.063C33.4238 39.713 33.2028 40.2243 32.7608 40.597C32.3188 40.9697 31.7121 41.156 30.9408 41.156ZM37.7828 41.156C37.3234 41.156 36.9074 41.0737 36.5348 40.909C36.1708 40.7443 35.8544 40.5103 35.5858 40.207C35.3258 39.895 35.1221 39.5267 34.9748 39.102C34.8361 38.6687 34.7668 38.1833 34.7668 37.646C34.7668 37.1173 34.8361 36.6363 34.9748 36.203C35.1221 35.7697 35.3258 35.4013 35.5858 35.098C35.8544 34.786 36.1708 34.5477 36.5348 34.383C36.9074 34.2183 37.3234 34.136 37.7828 34.136C38.2334 34.136 38.6364 34.2183 38.9918 34.383C39.3471 34.5477 39.6504 34.7773 39.9018 35.072C40.1531 35.358 40.3438 35.7003 40.4738 36.099C40.6124 36.4977 40.6818 36.9353 40.6818 37.412V37.906H35.8588V38.218C35.8588 38.504 35.9021 38.7727 35.9888 39.024C36.0841 39.2667 36.2141 39.479 36.3788 39.661C36.5521 39.843 36.7601 39.986 37.0028 40.09C37.2541 40.194 37.5358 40.246 37.8478 40.246C38.2724 40.246 38.6408 40.1463 38.9528 39.947C39.2734 39.7477 39.5204 39.4617 39.6938 39.089L40.4348 39.622C40.2181 40.0813 39.8801 40.454 39.4208 40.74C38.9614 41.0173 38.4154 41.156 37.7828 41.156ZM37.7828 35.007C37.4968 35.007 37.2368 35.059 37.0028 35.163C36.7688 35.2583 36.5651 35.397 36.3918 35.579C36.2271 35.761 36.0971 35.9777 36.0018 36.229C35.9064 36.4717 35.8588 36.7403 35.8588 37.035V37.126H39.5638V36.983C39.5638 36.385 39.3991 35.9083 39.0698 35.553C38.7491 35.189 38.3201 35.007 37.7828 35.007ZM42.3955 41V34.292H43.4355V35.527H43.5005C43.6219 35.2063 43.8385 34.9203 44.1505 34.669C44.4625 34.4177 44.8915 34.292 45.4375 34.292H45.8405V35.332H45.2295C44.6662 35.332 44.2242 35.4403 43.9035 35.657C43.5915 35.865 43.4355 36.1293 43.4355 36.45V41H42.3955ZM45.4129 43.145V42.235H51.9779V43.145H45.4129ZM53.9985 32.719C53.7732 32.719 53.6085 32.667 53.5045 32.563C53.4092 32.4503 53.3615 32.3073 53.3615 32.134V31.965C53.3615 31.7917 53.4092 31.653 53.5045 31.549C53.6085 31.4363 53.7732 31.38 53.9985 31.38C54.2239 31.38 54.3842 31.4363 54.4795 31.549C54.5835 31.653 54.6355 31.7917 54.6355 31.965V32.134C54.6355 32.3073 54.5835 32.4503 54.4795 32.563C54.3842 32.667 54.2239 32.719 53.9985 32.719ZM53.4785 34.292H54.5185V41H53.4785V34.292ZM61.0185 39.908H60.9665C60.5592 40.74 59.9049 41.156 59.0035 41.156C58.5875 41.156 58.2105 41.0737 57.8725 40.909C57.5345 40.7443 57.2442 40.5103 57.0015 40.207C56.7675 39.9037 56.5855 39.5353 56.4555 39.102C56.3342 38.6687 56.2735 38.1833 56.2735 37.646C56.2735 37.1087 56.3342 36.6233 56.4555 36.19C56.5855 35.7567 56.7675 35.3883 57.0015 35.085C57.2442 34.7817 57.5345 34.5477 57.8725 34.383C58.2105 34.2183 58.5875 34.136 59.0035 34.136C59.4715 34.136 59.8702 34.24 60.1995 34.448C60.5375 34.6473 60.7932 34.9593 60.9665 35.384H61.0185V31.38H62.0585V41H61.0185V39.908ZM59.2895 40.22C59.5235 40.22 59.7445 40.1897 59.9525 40.129C60.1692 40.0683 60.3555 39.9817 60.5115 39.869C60.6675 39.7477 60.7889 39.6047 60.8755 39.44C60.9709 39.2667 61.0185 39.0717 61.0185 38.855V36.359C61.0185 36.177 60.9709 36.008 60.8755 35.852C60.7889 35.6873 60.6675 35.5487 60.5115 35.436C60.3555 35.3233 60.1692 35.2367 59.9525 35.176C59.7445 35.1067 59.5235 35.072 59.2895 35.072C58.7002 35.072 58.2365 35.2583 57.8985 35.631C57.5605 35.995 57.3915 36.476 57.3915 37.074V38.218C57.3915 38.816 57.5605 39.3013 57.8985 39.674C58.2365 40.038 58.7002 40.22 59.2895 40.22ZM66.2846 41.156C65.6606 41.156 65.1362 41.039 64.7116 40.805C64.2956 40.5623 63.9359 40.2417 63.6326 39.843L64.3736 39.245C64.6336 39.5743 64.9239 39.83 65.2446 40.012C65.5652 40.1853 65.9379 40.272 66.3626 40.272C66.8046 40.272 67.1469 40.1767 67.3896 39.986C67.6409 39.7953 67.7666 39.5267 67.7666 39.18C67.7666 38.92 67.6799 38.699 67.5066 38.517C67.3419 38.3263 67.0386 38.1963 66.5966 38.127L66.0636 38.049C65.7516 38.0057 65.4656 37.9407 65.2056 37.854C64.9456 37.7587 64.7159 37.6373 64.5166 37.49C64.3259 37.334 64.1742 37.1433 64.0616 36.918C63.9576 36.6927 63.9056 36.424 63.9056 36.112C63.9056 35.7827 63.9662 35.4967 64.0876 35.254C64.2089 35.0027 64.3736 34.7947 64.5816 34.63C64.7982 34.4653 65.0539 34.344 65.3486 34.266C65.6432 34.1793 65.9596 34.136 66.2976 34.136C66.8436 34.136 67.2986 34.2313 67.6626 34.422C68.0352 34.6127 68.3602 34.877 68.6376 35.215L67.9486 35.839C67.8012 35.631 67.5846 35.4447 67.2986 35.28C67.0126 35.1067 66.6529 35.02 66.2196 35.02C65.7862 35.02 65.4569 35.1153 65.2316 35.306C65.0149 35.488 64.9066 35.7393 64.9066 36.06C64.9066 36.3893 65.0149 36.6277 65.2316 36.775C65.4569 36.9223 65.7776 37.0307 66.1936 37.1L66.7136 37.178C67.4589 37.2907 67.9876 37.5073 68.2996 37.828C68.6116 38.14 68.7676 38.5517 68.7676 39.063C68.7676 39.713 68.5466 40.2243 68.1046 40.597C67.6626 40.9697 67.0559 41.156 66.2846 41.156Z" fill="#00FFFF"/>
<path d="M73.4428 36.164V35.28H79.5008V36.164H73.4428ZM73.4428 38.764V37.88H79.5008V38.764H73.4428ZM88.7089 41V40.038H91.2439V32.732H91.1529L88.8649 34.864L88.2279 34.175L90.6329 31.926H92.3359V40.038H94.6759V41H88.7089ZM97.1279 39.479C97.4052 39.479 97.6045 39.5527 97.7259 39.7C97.8559 39.8387 97.9209 40.0207 97.9209 40.246V40.428C97.9209 40.7833 97.8169 41.1733 97.6089 41.598C97.4009 42.0313 97.1105 42.4083 96.7379 42.729H95.8669C96.1269 42.4517 96.3349 42.1873 96.4909 41.936C96.6555 41.6933 96.7725 41.4203 96.8419 41.117C96.6685 41.0737 96.5385 40.9913 96.4519 40.87C96.3739 40.7487 96.3349 40.6013 96.3349 40.428V40.246C96.3349 40.0207 96.3955 39.8387 96.5169 39.7C96.6469 39.5527 96.8505 39.479 97.1279 39.479ZM105.831 41H99.8769V39.882L102.841 37.152C103.266 36.762 103.621 36.3503 103.907 35.917C104.193 35.475 104.336 35.033 104.336 34.591V34.435C104.336 33.9323 104.197 33.525 103.92 33.213C103.643 32.901 103.222 32.745 102.659 32.745C102.382 32.745 102.139 32.784 101.931 32.862C101.723 32.94 101.541 33.0483 101.385 33.187C101.238 33.3257 101.112 33.4903 101.008 33.681C100.913 33.863 100.835 34.0623 100.774 34.279L99.7989 33.902C99.8855 33.6333 100.003 33.3733 100.15 33.122C100.306 32.862 100.497 32.6323 100.722 32.433C100.956 32.2337 101.233 32.0733 101.554 31.952C101.883 31.8307 102.269 31.77 102.711 31.77C103.153 31.77 103.547 31.835 103.894 31.965C104.241 32.095 104.531 32.277 104.765 32.511C104.999 32.745 105.177 33.0223 105.298 33.343C105.428 33.6637 105.493 34.019 105.493 34.409C105.493 34.7643 105.441 35.0937 105.337 35.397C105.242 35.7003 105.107 35.9907 104.934 36.268C104.761 36.5367 104.548 36.801 104.297 37.061C104.054 37.321 103.79 37.581 103.504 37.841L101.06 40.038H105.831V41ZM108.465 39.479C108.742 39.479 108.941 39.5527 109.063 39.7C109.193 39.8387 109.258 40.0207 109.258 40.246V40.428C109.258 40.7833 109.154 41.1733 108.946 41.598C108.738 42.0313 108.447 42.4083 108.075 42.729H107.204C107.464 42.4517 107.672 42.1873 107.828 41.936C107.992 41.6933 108.109 41.4203 108.179 41.117C108.005 41.0737 107.875 40.9913 107.789 40.87C107.711 40.7487 107.672 40.6013 107.672 40.428V40.246C107.672 40.0207 107.732 39.8387 107.854 39.7C107.984 39.5527 108.187 39.479 108.465 39.479ZM113.632 35.774C114.247 35.774 114.706 35.6353 115.01 35.358C115.322 35.072 115.478 34.708 115.478 34.266V34.175C115.478 33.6983 115.326 33.343 115.023 33.109C114.728 32.8663 114.338 32.745 113.853 32.745C113.385 32.745 113.003 32.849 112.709 33.057C112.414 33.2563 112.171 33.5293 111.981 33.876L111.175 33.252C111.287 33.07 111.422 32.8923 111.578 32.719C111.742 32.537 111.933 32.3767 112.15 32.238C112.366 32.0993 112.618 31.9867 112.904 31.9C113.19 31.8133 113.515 31.77 113.879 31.77C114.26 31.77 114.62 31.822 114.958 31.926C115.296 32.0213 115.586 32.1687 115.829 32.368C116.08 32.5587 116.275 32.797 116.414 33.083C116.561 33.369 116.635 33.694 116.635 34.058C116.635 34.3527 116.587 34.617 116.492 34.851C116.405 35.085 116.284 35.2887 116.128 35.462C115.972 35.6353 115.785 35.7827 115.569 35.904C115.361 36.0253 115.135 36.1163 114.893 36.177V36.229C115.135 36.281 115.369 36.3677 115.595 36.489C115.829 36.6017 116.032 36.7533 116.206 36.944C116.388 37.126 116.531 37.3513 116.635 37.62C116.747 37.88 116.804 38.179 116.804 38.517C116.804 38.907 116.73 39.2667 116.583 39.596C116.435 39.9167 116.227 40.194 115.959 40.428C115.69 40.6533 115.365 40.831 114.984 40.961C114.602 41.091 114.182 41.156 113.723 41.156C113.333 41.156 112.986 41.1127 112.683 41.026C112.379 40.9393 112.111 40.8223 111.877 40.675C111.643 40.5277 111.435 40.363 111.253 40.181C111.079 39.999 110.923 39.8083 110.785 39.609L111.604 38.985C111.716 39.167 111.838 39.3317 111.968 39.479C112.106 39.6263 112.258 39.752 112.423 39.856C112.587 39.96 112.774 40.0423 112.982 40.103C113.19 40.155 113.432 40.181 113.71 40.181C114.351 40.181 114.836 40.038 115.166 39.752C115.495 39.4573 115.66 39.0413 115.66 38.504V38.4C115.66 37.8627 115.495 37.451 115.166 37.165C114.836 36.8703 114.351 36.723 113.71 36.723H112.644V35.774H113.632ZM119.802 39.479C120.079 39.479 120.278 39.5527 120.4 39.7C120.53 39.8387 120.595 40.0207 120.595 40.246V40.428C120.595 40.7833 120.491 41.1733 120.283 41.598C120.075 42.0313 119.784 42.4083 119.412 42.729H118.541C118.801 42.4517 119.009 42.1873 119.165 41.936C119.329 41.6933 119.446 41.4203 119.516 41.117C119.342 41.0737 119.212 40.9913 119.126 40.87C119.048 40.7487 119.009 40.6013 119.009 40.428V40.246C119.009 40.0207 119.069 39.8387 119.191 39.7C119.321 39.5527 119.524 39.479 119.802 39.479ZM126.451 41V39.219H122.07V38.257L125.866 31.926H127.491V38.309H128.804V39.219H127.491V41H126.451ZM123.097 38.309H126.451V32.771H126.386L123.097 38.309ZM131.139 39.479C131.416 39.479 131.615 39.5527 131.737 39.7C131.867 39.8387 131.932 40.0207 131.932 40.246V40.428C131.932 40.7833 131.828 41.1733 131.62 41.598C131.412 42.0313 131.121 42.4083 130.749 42.729H129.878C130.138 42.4517 130.346 42.1873 130.502 41.936C130.666 41.6933 130.783 41.4203 130.853 41.117C130.679 41.0737 130.549 40.9913 130.463 40.87C130.385 40.7487 130.346 40.6013 130.346 40.428V40.246C130.346 40.0207 130.406 39.8387 130.528 39.7C130.658 39.5527 130.861 39.479 131.139 39.479ZM139.387 32.888H135.409L135.149 36.346H135.24C135.456 36.0427 135.699 35.8 135.968 35.618C136.245 35.436 136.622 35.345 137.099 35.345C137.489 35.345 137.848 35.41 138.178 35.54C138.507 35.67 138.793 35.8563 139.036 36.099C139.278 36.333 139.465 36.6233 139.595 36.97C139.733 37.3167 139.803 37.711 139.803 38.153C139.803 38.595 139.733 39.0023 139.595 39.375C139.456 39.739 139.252 40.0553 138.984 40.324C138.724 40.584 138.403 40.7877 138.022 40.935C137.649 41.0823 137.224 41.156 136.748 41.156C136.366 41.156 136.028 41.1127 135.734 41.026C135.448 40.9393 135.192 40.8223 134.967 40.675C134.741 40.5277 134.542 40.363 134.369 40.181C134.204 39.999 134.052 39.8083 133.914 39.609L134.733 38.985C134.845 39.167 134.962 39.3317 135.084 39.479C135.214 39.6263 135.352 39.752 135.5 39.856C135.656 39.96 135.833 40.0423 136.033 40.103C136.232 40.155 136.47 40.181 136.748 40.181C137.372 40.181 137.844 40.0163 138.165 39.687C138.485 39.3577 138.646 38.894 138.646 38.296V38.166C138.646 37.568 138.485 37.1043 138.165 36.775C137.844 36.4457 137.372 36.281 136.748 36.281C136.332 36.281 136.002 36.359 135.76 36.515C135.526 36.6623 135.313 36.84 135.123 37.048L134.2 36.918L134.525 31.926H139.387V32.888ZM142.476 39.479C142.753 39.479 142.952 39.5527 143.074 39.7C143.204 39.8387 143.269 40.0207 143.269 40.246V40.428C143.269 40.7833 143.165 41.1733 142.957 41.598C142.749 42.0313 142.458 42.4083 142.086 42.729H141.215C141.475 42.4517 141.683 42.1873 141.839 41.936C142.003 41.6933 142.12 41.4203 142.19 41.117C142.016 41.0737 141.886 40.9913 141.8 40.87C141.722 40.7487 141.683 40.6013 141.683 40.428V40.246C141.683 40.0207 141.743 39.8387 141.865 39.7C141.995 39.5527 142.198 39.479 142.476 39.479ZM148.163 41.156C147.695 41.156 147.27 41.078 146.889 40.922C146.516 40.7573 146.195 40.5277 145.927 40.233C145.667 39.9297 145.467 39.5613 145.329 39.128C145.19 38.6947 145.121 38.2093 145.121 37.672C145.121 36.996 145.22 36.3633 145.42 35.774C145.619 35.176 145.875 34.6343 146.187 34.149C146.507 33.655 146.858 33.2217 147.24 32.849C147.621 32.4677 147.994 32.16 148.358 31.926H149.762C149.276 32.2813 148.843 32.628 148.462 32.966C148.08 33.304 147.747 33.6593 147.461 34.032C147.175 34.396 146.932 34.7903 146.733 35.215C146.533 35.631 146.373 36.1033 146.252 36.632L146.317 36.658C146.533 36.2853 146.811 35.9777 147.149 35.735C147.495 35.4837 147.946 35.358 148.501 35.358C148.891 35.358 149.25 35.423 149.58 35.553C149.909 35.683 150.191 35.8693 150.425 36.112C150.659 36.3547 150.841 36.6493 150.971 36.996C151.109 37.3427 151.179 37.7283 151.179 38.153C151.179 38.595 151.105 39.0023 150.958 39.375C150.819 39.739 150.615 40.0553 150.347 40.324C150.087 40.584 149.77 40.7877 149.398 40.935C149.025 41.0823 148.613 41.156 148.163 41.156ZM148.15 40.207C148.748 40.207 149.211 40.0423 149.541 39.713C149.879 39.3837 150.048 38.9113 150.048 38.296V38.192C150.048 37.5767 149.879 37.1043 149.541 36.775C149.211 36.4457 148.748 36.281 148.15 36.281C147.552 36.281 147.084 36.4457 146.746 36.775C146.416 37.1043 146.252 37.5767 146.252 38.192V38.296C146.252 38.9113 146.416 39.3837 146.746 39.713C147.084 40.0423 147.552 40.207 148.15 40.207ZM153.812 39.479C154.09 39.479 154.289 39.5527 154.41 39.7C154.54 39.8387 154.605 40.0207 154.605 40.246V40.428C154.605 40.7833 154.501 41.1733 154.293 41.598C154.085 42.0313 153.795 42.4083 153.422 42.729H152.551C152.811 42.4517 153.019 42.1873 153.175 41.936C153.34 41.6933 153.457 41.4203 153.526 41.117C153.353 41.0737 153.223 40.9913 153.136 40.87C153.058 40.7487 153.019 40.6013 153.019 40.428V40.246C153.019 40.0207 153.08 39.8387 153.201 39.7C153.331 39.5527 153.535 39.479 153.812 39.479ZM157.861 41L161.332 32.862H157.458V34.552H156.483V31.926H162.437V32.888L159.031 41H157.861Z" fill="white"/>
<path d="M84.648 42.794V31.12H86.78V31.939H85.545V41.975H86.78V42.794H84.648ZM166.293 31.12V42.794H164.161V41.975H165.396V31.939H164.161V31.12H166.293Z" fill="#D3FC30"/>
<path d="M13.0984 65H7.14443V63.882L10.1084 61.152C10.5331 60.762 10.8884 60.3503 11.1744 59.917C11.4604 59.475 11.6034 59.033 11.6034 58.591V58.435C11.6034 57.9323 11.4648 57.525 11.1874 57.213C10.9101 56.901 10.4898 56.745 9.92643 56.745C9.6491 56.745 9.40643 56.784 9.19843 56.862C8.99043 56.94 8.80843 57.0483 8.65243 57.187C8.5051 57.3257 8.37943 57.4903 8.27543 57.681C8.1801 57.863 8.1021 58.0623 8.04143 58.279L7.06643 57.902C7.1531 57.6333 7.2701 57.3733 7.41743 57.122C7.57343 56.862 7.7641 56.6323 7.98943 56.433C8.22343 56.2337 8.50077 56.0733 8.82143 55.952C9.15077 55.8307 9.53643 55.77 9.97843 55.77C10.4204 55.77 10.8148 55.835 11.1614 55.965C11.5081 56.095 11.7984 56.277 12.0324 56.511C12.2664 56.745 12.4441 57.0223 12.5654 57.343C12.6954 57.6637 12.7604 58.019 12.7604 58.409C12.7604 58.7643 12.7084 59.0937 12.6044 59.397C12.5091 59.7003 12.3748 59.9907 12.2014 60.268C12.0281 60.5367 11.8158 60.801 11.5644 61.061C11.3218 61.321 11.0574 61.581 10.7714 61.841L8.32743 64.038H13.0984V65ZM117.933 65.156C117.655 65.156 117.452 65.0867 117.322 64.948C117.2 64.8093 117.14 64.6273 117.14 64.402V64.233C117.14 64.0077 117.2 63.8257 117.322 63.687C117.452 63.5483 117.655 63.479 117.933 63.479C118.21 63.479 118.409 63.5483 118.531 63.687C118.661 63.8257 118.726 64.0077 118.726 64.233V64.402C118.726 64.6273 118.661 64.8093 118.531 64.948C118.409 65.0867 118.21 65.156 117.933 65.156ZM117.933 59.813C117.655 59.813 117.452 59.7437 117.322 59.605C117.2 59.4663 117.14 59.2843 117.14 59.059V58.89C117.14 58.6647 117.2 58.4827 117.322 58.344C117.452 58.2053 117.655 58.136 117.933 58.136C118.21 58.136 118.409 58.2053 118.531 58.344C118.661 58.4827 118.726 58.6647 118.726 58.89V59.059C118.726 59.2843 118.661 59.4663 118.531 59.605C118.409 59.7437 118.21 59.813 117.933 59.813Z" fill="#D9D9D9"/>
<path d="M21.5779 59.202H20.4859V58.292H21.5779V56.94C21.5779 56.472 21.6992 56.095 21.9419 55.809C22.1846 55.523 22.5529 55.38 23.0469 55.38H24.0609V56.29H22.6179V58.292H24.0609V59.202H22.6179V65H21.5779V59.202ZM27.9129 65.156C27.4623 65.156 27.0506 65.0737 26.6779 64.909C26.3053 64.7443 25.9846 64.5103 25.7159 64.207C25.4559 63.895 25.2523 63.5267 25.1049 63.102C24.9576 62.6687 24.8839 62.1833 24.8839 61.646C24.8839 61.1173 24.9576 60.6363 25.1049 60.203C25.2523 59.7697 25.4559 59.4013 25.7159 59.098C25.9846 58.786 26.3053 58.5477 26.6779 58.383C27.0506 58.2183 27.4623 58.136 27.9129 58.136C28.3636 58.136 28.7709 58.2183 29.1349 58.383C29.5076 58.5477 29.8283 58.786 30.0969 59.098C30.3656 59.4013 30.5736 59.7697 30.7209 60.203C30.8683 60.6363 30.9419 61.1173 30.9419 61.646C30.9419 62.1833 30.8683 62.6687 30.7209 63.102C30.5736 63.5267 30.3656 63.895 30.0969 64.207C29.8283 64.5103 29.5076 64.7443 29.1349 64.909C28.7709 65.0737 28.3636 65.156 27.9129 65.156ZM27.9129 64.233C28.4763 64.233 28.9356 64.0597 29.2909 63.713C29.6463 63.3663 29.8239 62.8377 29.8239 62.127V61.165C29.8239 60.4543 29.6463 59.9257 29.2909 59.579C28.9356 59.2323 28.4763 59.059 27.9129 59.059C27.3496 59.059 26.8903 59.2323 26.5349 59.579C26.1796 59.9257 26.0019 60.4543 26.0019 61.165V62.127C26.0019 62.8377 26.1796 63.3663 26.5349 63.713C26.8903 64.0597 27.3496 64.233 27.9129 64.233ZM32.6524 65V58.292H33.6924V59.527H33.7574C33.8787 59.2063 34.0954 58.9203 34.4074 58.669C34.7194 58.4177 35.1484 58.292 35.6944 58.292H36.0974V59.332H35.4864C34.923 59.332 34.481 59.4403 34.1604 59.657C33.8484 59.865 33.6924 60.1293 33.6924 60.45V65H32.6524Z" fill="#DD3B3B"/>
<path d="M41.0181 56.719C40.7927 56.719 40.6281 56.667 40.5241 56.563C40.4287 56.4503 40.3811 56.3073 40.3811 56.134V55.965C40.3811 55.7917 40.4287 55.653 40.5241 55.549C40.6281 55.4363 40.7927 55.38 41.0181 55.38C41.2434 55.38 41.4037 55.4363 41.4991 55.549C41.6031 55.653 41.6551 55.7917 41.6551 55.965V56.134C41.6551 56.3073 41.6031 56.4503 41.4991 56.563C41.4037 56.667 41.2434 56.719 41.0181 56.719ZM40.4981 58.292H41.5381V65H40.4981V58.292ZM48.0381 63.908H47.9861C47.5787 64.74 46.9244 65.156 46.0231 65.156C45.6071 65.156 45.2301 65.0737 44.8921 64.909C44.5541 64.7443 44.2637 64.5103 44.0211 64.207C43.7871 63.9037 43.6051 63.5353 43.4751 63.102C43.3537 62.6687 43.2931 62.1833 43.2931 61.646C43.2931 61.1087 43.3537 60.6233 43.4751 60.19C43.6051 59.7567 43.7871 59.3883 44.0211 59.085C44.2637 58.7817 44.5541 58.5477 44.8921 58.383C45.2301 58.2183 45.6071 58.136 46.0231 58.136C46.4911 58.136 46.8897 58.24 47.2191 58.448C47.5571 58.6473 47.8127 58.9593 47.9861 59.384H48.0381V55.38H49.0781V65H48.0381V63.908ZM46.3091 64.22C46.5431 64.22 46.7641 64.1897 46.9721 64.129C47.1887 64.0683 47.3751 63.9817 47.5311 63.869C47.6871 63.7477 47.8084 63.6047 47.8951 63.44C47.9904 63.2667 48.0381 63.0717 48.0381 62.855V60.359C48.0381 60.177 47.9904 60.008 47.8951 59.852C47.8084 59.6873 47.6871 59.5487 47.5311 59.436C47.3751 59.3233 47.1887 59.2367 46.9721 59.176C46.7641 59.1067 46.5431 59.072 46.3091 59.072C45.7197 59.072 45.2561 59.2583 44.9181 59.631C44.5801 59.995 44.4111 60.476 44.4111 61.074V62.218C44.4111 62.816 44.5801 63.3013 44.9181 63.674C45.2561 64.038 45.7197 64.22 46.3091 64.22ZM72.2063 63.908H72.1543C72.085 64.064 71.9983 64.22 71.8943 64.376C71.799 64.5233 71.6776 64.6577 71.5303 64.779C71.383 64.8917 71.2053 64.9827 70.9973 65.052C70.7893 65.1213 70.5466 65.156 70.2693 65.156C69.576 65.156 69.0256 64.935 68.6183 64.493C68.211 64.0423 68.0073 63.4097 68.0073 62.595V58.292H69.0473V62.413C69.0473 63.6177 69.5586 64.22 70.5813 64.22C70.7893 64.22 70.9886 64.194 71.1793 64.142C71.3786 64.09 71.552 64.012 71.6993 63.908C71.8553 63.804 71.9766 63.674 72.0633 63.518C72.1586 63.3533 72.2063 63.1583 72.2063 62.933V58.292H73.2463V65H72.2063V63.908ZM77.476 65.156C76.852 65.156 76.3276 65.039 75.903 64.805C75.487 64.5623 75.1273 64.2417 74.824 63.843L75.565 63.245C75.825 63.5743 76.1153 63.83 76.436 64.012C76.7566 64.1853 77.1293 64.272 77.554 64.272C77.996 64.272 78.3383 64.1767 78.581 63.986C78.8323 63.7953 78.958 63.5267 78.958 63.18C78.958 62.92 78.8713 62.699 78.698 62.517C78.5333 62.3263 78.23 62.1963 77.788 62.127L77.255 62.049C76.943 62.0057 76.657 61.9407 76.397 61.854C76.137 61.7587 75.9073 61.6373 75.708 61.49C75.5173 61.334 75.3656 61.1433 75.253 60.918C75.149 60.6927 75.097 60.424 75.097 60.112C75.097 59.7827 75.1576 59.4967 75.279 59.254C75.4003 59.0027 75.565 58.7947 75.773 58.63C75.9896 58.4653 76.2453 58.344 76.54 58.266C76.8346 58.1793 77.151 58.136 77.489 58.136C78.035 58.136 78.49 58.2313 78.854 58.422C79.2266 58.6127 79.5516 58.877 79.829 59.215L79.14 59.839C78.9926 59.631 78.776 59.4447 78.49 59.28C78.204 59.1067 77.8443 59.02 77.411 59.02C76.9776 59.02 76.6483 59.1153 76.423 59.306C76.2063 59.488 76.098 59.7393 76.098 60.06C76.098 60.3893 76.2063 60.6277 76.423 60.775C76.6483 60.9223 76.969 61.0307 77.385 61.1L77.905 61.178C78.6503 61.2907 79.179 61.5073 79.491 61.828C79.803 62.14 79.959 62.5517 79.959 63.063C79.959 63.713 79.738 64.2243 79.296 64.597C78.854 64.9697 78.2473 65.156 77.476 65.156ZM84.3179 65.156C83.8586 65.156 83.4426 65.0737 83.0699 64.909C82.7059 64.7443 82.3896 64.5103 82.1209 64.207C81.8609 63.895 81.6573 63.5267 81.5099 63.102C81.3713 62.6687 81.3019 62.1833 81.3019 61.646C81.3019 61.1173 81.3713 60.6363 81.5099 60.203C81.6573 59.7697 81.8609 59.4013 82.1209 59.098C82.3896 58.786 82.7059 58.5477 83.0699 58.383C83.4426 58.2183 83.8586 58.136 84.3179 58.136C84.7686 58.136 85.1716 58.2183 85.5269 58.383C85.8823 58.5477 86.1856 58.7773 86.4369 59.072C86.6883 59.358 86.8789 59.7003 87.0089 60.099C87.1476 60.4977 87.2169 60.9353 87.2169 61.412V61.906H82.3939V62.218C82.3939 62.504 82.4373 62.7727 82.5239 63.024C82.6193 63.2667 82.7493 63.479 82.9139 63.661C83.0873 63.843 83.2953 63.986 83.5379 64.09C83.7893 64.194 84.0709 64.246 84.3829 64.246C84.8076 64.246 85.1759 64.1463 85.4879 63.947C85.8086 63.7477 86.0556 63.4617 86.2289 63.089L86.9699 63.622C86.7533 64.0813 86.4153 64.454 85.9559 64.74C85.4966 65.0173 84.9506 65.156 84.3179 65.156ZM84.3179 59.007C84.0319 59.007 83.7719 59.059 83.5379 59.163C83.3039 59.2583 83.1003 59.397 82.9269 59.579C82.7623 59.761 82.6323 59.9777 82.5369 60.229C82.4416 60.4717 82.3939 60.7403 82.3939 61.035V61.126H86.0989V60.983C86.0989 60.385 85.9343 59.9083 85.6049 59.553C85.2843 59.189 84.8553 59.007 84.3179 59.007ZM88.9307 65V58.292H89.9707V59.527H90.0357C90.157 59.2063 90.3737 58.9203 90.6857 58.669C90.9977 58.4177 91.4267 58.292 91.9727 58.292H92.3757V59.332H91.7647C91.2014 59.332 90.7594 59.4403 90.4387 59.657C90.1267 59.865 89.9707 60.1293 89.9707 60.45V65H88.9307ZM91.9481 67.145V66.235H98.5131V67.145H91.9481ZM100.534 56.719C100.308 56.719 100.144 56.667 100.04 56.563C99.9444 56.4503 99.8967 56.3073 99.8967 56.134V55.965C99.8967 55.7917 99.9444 55.653 100.04 55.549C100.144 55.4363 100.308 55.38 100.534 55.38C100.759 55.38 100.919 55.4363 101.015 55.549C101.119 55.653 101.171 55.7917 101.171 55.965V56.134C101.171 56.3073 101.119 56.4503 101.015 56.563C100.919 56.667 100.759 56.719 100.534 56.719ZM100.014 58.292H101.054V65H100.014V58.292ZM107.554 63.908H107.502C107.094 64.74 106.44 65.156 105.539 65.156C105.123 65.156 104.746 65.0737 104.408 64.909C104.07 64.7443 103.779 64.5103 103.537 64.207C103.303 63.9037 103.121 63.5353 102.991 63.102C102.869 62.6687 102.809 62.1833 102.809 61.646C102.809 61.1087 102.869 60.6233 102.991 60.19C103.121 59.7567 103.303 59.3883 103.537 59.085C103.779 58.7817 104.07 58.5477 104.408 58.383C104.746 58.2183 105.123 58.136 105.539 58.136C106.007 58.136 106.405 58.24 106.735 58.448C107.073 58.6473 107.328 58.9593 107.502 59.384H107.554V55.38H108.594V65H107.554V63.908ZM105.825 64.22C106.059 64.22 106.28 64.1897 106.488 64.129C106.704 64.0683 106.891 63.9817 107.047 63.869C107.203 63.7477 107.324 63.6047 107.411 63.44C107.506 63.2667 107.554 63.0717 107.554 62.855V60.359C107.554 60.177 107.506 60.008 107.411 59.852C107.324 59.6873 107.203 59.5487 107.047 59.436C106.891 59.3233 106.704 59.2367 106.488 59.176C106.28 59.1067 106.059 59.072 105.825 59.072C105.235 59.072 104.772 59.2583 104.434 59.631C104.096 59.995 103.927 60.476 103.927 61.074V62.218C103.927 62.816 104.096 63.3013 104.434 63.674C104.772 64.038 105.235 64.22 105.825 64.22ZM112.82 65.156C112.196 65.156 111.671 65.039 111.247 64.805C110.831 64.5623 110.471 64.2417 110.168 63.843L110.909 63.245C111.169 63.5743 111.459 63.83 111.78 64.012C112.1 64.1853 112.473 64.272 112.898 64.272C113.34 64.272 113.682 64.1767 113.925 63.986C114.176 63.7953 114.302 63.5267 114.302 63.18C114.302 62.92 114.215 62.699 114.042 62.517C113.877 62.3263 113.574 62.1963 113.132 62.127L112.599 62.049C112.287 62.0057 112.001 61.9407 111.741 61.854C111.481 61.7587 111.251 61.6373 111.052 61.49C110.861 61.334 110.709 61.1433 110.597 60.918C110.493 60.6927 110.441 60.424 110.441 60.112C110.441 59.7827 110.501 59.4967 110.623 59.254C110.744 59.0027 110.909 58.7947 111.117 58.63C111.333 58.4653 111.589 58.344 111.884 58.266C112.178 58.1793 112.495 58.136 112.833 58.136C113.379 58.136 113.834 58.2313 114.198 58.422C114.57 58.6127 114.895 58.877 115.173 59.215L114.484 59.839C114.336 59.631 114.12 59.4447 113.834 59.28C113.548 59.1067 113.188 59.02 112.755 59.02C112.321 59.02 111.992 59.1153 111.767 59.306C111.55 59.488 111.442 59.7393 111.442 60.06C111.442 60.3893 111.55 60.6277 111.767 60.775C111.992 60.9223 112.313 61.0307 112.729 61.1L113.249 61.178C113.994 61.2907 114.523 61.5073 114.835 61.828C115.147 62.14 115.303 62.5517 115.303 63.063C115.303 63.713 115.082 64.2243 114.64 64.597C114.198 64.9697 113.591 65.156 112.82 65.156Z" fill="#00FFFF"/>
<path d="M54.8813 56.719C54.656 56.719 54.4913 56.667 54.3873 56.563C54.292 56.4503 54.2443 56.3073 54.2443 56.134V55.965C54.2443 55.7917 54.292 55.653 54.3873 55.549C54.4913 55.4363 54.656 55.38 54.8813 55.38C55.1067 55.38 55.267 55.4363 55.3623 55.549C55.4663 55.653 55.5183 55.7917 55.5183 55.965V56.134C55.5183 56.3073 55.4663 56.4503 55.3623 56.563C55.267 56.667 55.1067 56.719 54.8813 56.719ZM54.3613 58.292H55.4013V65H54.3613V58.292ZM57.6113 65V58.292H58.6513V59.384H58.7033C58.868 59.0027 59.0977 58.6993 59.3923 58.474C59.6957 58.2487 60.0987 58.136 60.6013 58.136C61.2947 58.136 61.8407 58.3613 62.2393 58.812C62.6467 59.254 62.8503 59.8823 62.8503 60.697V65H61.8103V60.879C61.8103 59.6743 61.3033 59.072 60.2893 59.072C60.0813 59.072 59.8777 59.098 59.6783 59.15C59.4877 59.202 59.3143 59.28 59.1583 59.384C59.0023 59.488 58.8767 59.6223 58.7813 59.787C58.6947 59.943 58.6513 60.1293 58.6513 60.346V65H57.6113Z" fill="#2163DB"/>
<path d="M9.4179 83.774C10.0332 83.774 10.4926 83.6353 10.7959 83.358C11.1079 83.072 11.2639 82.708 11.2639 82.266V82.175C11.2639 81.6983 11.1122 81.343 10.8089 81.109C10.5142 80.8663 10.1242 80.745 9.6389 80.745C9.1709 80.745 8.78957 80.849 8.4949 81.057C8.20024 81.2563 7.95757 81.5293 7.7669 81.876L6.9609 81.252C7.07357 81.07 7.2079 80.8923 7.3639 80.719C7.52857 80.537 7.71924 80.3767 7.9359 80.238C8.15257 80.0993 8.4039 79.9867 8.6899 79.9C8.9759 79.8133 9.3009 79.77 9.6649 79.77C10.0462 79.77 10.4059 79.822 10.7439 79.926C11.0819 80.0213 11.3722 80.1687 11.6149 80.368C11.8662 80.5587 12.0612 80.797 12.1999 81.083C12.3472 81.369 12.4209 81.694 12.4209 82.058C12.4209 82.3527 12.3732 82.617 12.2779 82.851C12.1912 83.085 12.0699 83.2887 11.9139 83.462C11.7579 83.6353 11.5716 83.7827 11.3549 83.904C11.1469 84.0253 10.9216 84.1163 10.6789 84.177V84.229C10.9216 84.281 11.1556 84.3677 11.3809 84.489C11.6149 84.6017 11.8186 84.7533 11.9919 84.944C12.1739 85.126 12.3169 85.3513 12.4209 85.62C12.5336 85.88 12.5899 86.179 12.5899 86.517C12.5899 86.907 12.5162 87.2667 12.3689 87.596C12.2216 87.9167 12.0136 88.194 11.7449 88.428C11.4762 88.6533 11.1512 88.831 10.7699 88.961C10.3886 89.091 9.96824 89.156 9.5089 89.156C9.1189 89.156 8.77224 89.1127 8.4689 89.026C8.16557 88.9393 7.8969 88.8223 7.6629 88.675C7.4289 88.5277 7.2209 88.363 7.0389 88.181C6.86557 87.999 6.70957 87.8083 6.5709 87.609L7.3899 86.985C7.50257 87.167 7.6239 87.3317 7.7539 87.479C7.89257 87.6263 8.04424 87.752 8.2089 87.856C8.37357 87.96 8.5599 88.0423 8.7679 88.103C8.9759 88.155 9.21857 88.181 9.4959 88.181C10.1372 88.181 10.6226 88.038 10.9519 87.752C11.2812 87.4573 11.4459 87.0413 11.4459 86.504V86.4C11.4459 85.8627 11.2812 85.451 10.9519 85.165C10.6226 84.8703 10.1372 84.723 9.4959 84.723H8.4299V83.774H9.4179Z" fill="#D9D9D9"/>
<path d="M21.0694 82.292H22.1094V83.384H22.1614C22.3347 82.9593 22.586 82.6473 22.9154 82.448C23.2534 82.24 23.6564 82.136 24.1244 82.136C24.5404 82.136 24.9174 82.2183 25.2554 82.383C25.5934 82.5477 25.8794 82.7817 26.1134 83.085C26.356 83.3883 26.538 83.7567 26.6594 84.19C26.7894 84.6233 26.8544 85.1087 26.8544 85.646C26.8544 86.1833 26.7894 86.6687 26.6594 87.102C26.538 87.5353 26.356 87.9037 26.1134 88.207C25.8794 88.5103 25.5934 88.7443 25.2554 88.909C24.9174 89.0737 24.5404 89.156 24.1244 89.156C23.2144 89.156 22.56 88.74 22.1614 87.908H22.1094V91.6H21.0694V82.292ZM23.8384 88.22C24.4277 88.22 24.8914 88.038 25.2294 87.674C25.5674 87.3013 25.7364 86.816 25.7364 86.218V85.074C25.7364 84.476 25.5674 83.995 25.2294 83.631C24.8914 83.2583 24.4277 83.072 23.8384 83.072C23.6044 83.072 23.379 83.1067 23.1624 83.176C22.9544 83.2367 22.7724 83.3233 22.6164 83.436C22.4604 83.5487 22.3347 83.6873 22.2394 83.852C22.1527 84.008 22.1094 84.177 22.1094 84.359V86.855C22.1094 87.0717 22.1527 87.2667 22.2394 87.44C22.3347 87.6047 22.4604 87.7477 22.6164 87.869C22.7724 87.9817 22.9544 88.0683 23.1624 88.129C23.379 88.1897 23.6044 88.22 23.8384 88.22ZM28.6104 89V82.292H29.6504V83.527H29.7154C29.8367 83.2063 30.0534 82.9203 30.3654 82.669C30.6774 82.4177 31.1064 82.292 31.6524 82.292H32.0554V83.332H31.4444C30.881 83.332 30.439 83.4403 30.1184 83.657C29.8064 83.865 29.6504 84.1293 29.6504 84.45V89H28.6104ZM33.9038 80.719C33.6785 80.719 33.5138 80.667 33.4098 80.563C33.3145 80.4503 33.2668 80.3073 33.2668 80.134V79.965C33.2668 79.7917 33.3145 79.653 33.4098 79.549C33.5138 79.4363 33.6785 79.38 33.9038 79.38C34.1291 79.38 34.2895 79.4363 34.3848 79.549C34.4888 79.653 34.5408 79.7917 34.5408 79.965V80.134C34.5408 80.3073 34.4888 80.4503 34.3848 80.563C34.2895 80.667 34.1291 80.719 33.9038 80.719ZM33.3838 82.292H34.4238V89H33.3838V82.292ZM36.6338 89V82.292H37.6738V83.384H37.7258C37.8905 83.0027 38.1201 82.6993 38.4148 82.474C38.7181 82.2487 39.1211 82.136 39.6238 82.136C40.3171 82.136 40.8631 82.3613 41.2618 82.812C41.6691 83.254 41.8728 83.8823 41.8728 84.697V89H40.8328V84.879C40.8328 83.6743 40.3258 83.072 39.3118 83.072C39.1038 83.072 38.9001 83.098 38.7008 83.15C38.5101 83.202 38.3368 83.28 38.1808 83.384C38.0248 83.488 37.8991 83.6223 37.8038 83.787C37.7171 83.943 37.6738 84.1293 37.6738 84.346V89H36.6338ZM45.5045 89C45.1405 89 44.8631 88.9003 44.6725 88.701C44.4905 88.493 44.3995 88.2243 44.3995 87.895V83.202H43.2945V82.292H43.9185C44.1438 82.292 44.2955 82.2487 44.3735 82.162C44.4601 82.0667 44.5035 81.9063 44.5035 81.681V80.433H45.4395V82.292H46.9085V83.202H45.4395V88.09H46.8045V89H45.5045ZM48.5541 84.944C48.5541 84.32 48.6148 83.7177 48.7361 83.137C48.8574 82.5563 49.0221 82.019 49.2301 81.525C49.4468 81.0223 49.6981 80.5673 49.9841 80.16C50.2701 79.7527 50.5778 79.406 50.9071 79.12H51.8951C51.5311 79.4493 51.2018 79.822 50.9071 80.238C50.6211 80.654 50.3741 81.096 50.1661 81.564C49.9668 82.032 49.8108 82.5087 49.6981 82.994C49.5854 83.4793 49.5291 83.9473 49.5291 84.398V85.516C49.5291 85.9753 49.5854 86.4477 49.6981 86.933C49.8108 87.4183 49.9711 87.895 50.1791 88.363C50.3871 88.831 50.6341 89.273 50.9201 89.689C51.2148 90.105 51.5398 90.469 51.8951 90.781H50.9071C50.5864 90.5123 50.2831 90.1743 49.9971 89.767C49.7111 89.3597 49.4598 88.9047 49.2431 88.402C49.0351 87.8993 48.8661 87.3577 48.7361 86.777C48.6148 86.1877 48.5541 85.5767 48.5541 84.944ZM65.8966 84.944C65.8966 85.5767 65.8316 86.1877 65.7016 86.777C65.5803 87.3577 65.4113 87.8993 65.1946 88.402C64.9866 88.9047 64.7396 89.3597 64.4536 89.767C64.1676 90.1743 63.8643 90.5123 63.5436 90.781H62.5556C62.9109 90.469 63.2316 90.105 63.5176 89.689C63.8123 89.273 64.0636 88.831 64.2716 88.363C64.4796 87.895 64.6399 87.4183 64.7526 86.933C64.8653 86.4477 64.9216 85.9753 64.9216 85.516V84.398C64.9216 83.9473 64.8653 83.4793 64.7526 82.994C64.6399 82.5087 64.4796 82.032 64.2716 81.564C64.0723 81.096 63.8253 80.654 63.5306 80.238C63.2446 79.822 62.9196 79.4493 62.5556 79.12H63.5436C63.8729 79.406 64.1806 79.7527 64.4666 80.16C64.7526 80.5673 64.9996 81.0223 65.2076 81.525C65.4243 82.019 65.5933 82.5563 65.7146 83.137C65.8359 83.7177 65.8966 84.32 65.8966 84.944Z" fill="#D3FC30"/>
<path d="M53.4546 80.719C53.2293 80.719 53.0646 80.667 52.9606 80.563C52.8653 80.4503 52.8176 80.3073 52.8176 80.134V79.965C52.8176 79.7917 52.8653 79.653 52.9606 79.549C53.0646 79.4363 53.2293 79.38 53.4546 79.38C53.6799 79.38 53.8403 79.4363 53.9356 79.549C54.0396 79.653 54.0916 79.7917 54.0916 79.965V80.134C54.0916 80.3073 54.0396 80.4503 53.9356 80.563C53.8403 80.667 53.6799 80.719 53.4546 80.719ZM52.9346 82.292H53.9746V89H52.9346V82.292ZM60.4746 87.908H60.4226C60.0153 88.74 59.3609 89.156 58.4596 89.156C58.0436 89.156 57.6666 89.0737 57.3286 88.909C56.9906 88.7443 56.7003 88.5103 56.4576 88.207C56.2236 87.9037 56.0416 87.5353 55.9116 87.102C55.7903 86.6687 55.7296 86.1833 55.7296 85.646C55.7296 85.1087 55.7903 84.6233 55.9116 84.19C56.0416 83.7567 56.2236 83.3883 56.4576 83.085C56.7003 82.7817 56.9906 82.5477 57.3286 82.383C57.6666 82.2183 58.0436 82.136 58.4596 82.136C58.9276 82.136 59.3263 82.24 59.6556 82.448C59.9936 82.6473 60.2493 82.9593 60.4226 83.384H60.4746V79.38H61.5146V89H60.4746V87.908ZM58.7456 88.22C58.9796 88.22 59.2006 88.1897 59.4086 88.129C59.6253 88.0683 59.8116 87.9817 59.9676 87.869C60.1236 87.7477 60.2449 87.6047 60.3316 87.44C60.4269 87.2667 60.4746 87.0717 60.4746 86.855V84.359C60.4746 84.177 60.4269 84.008 60.3316 83.852C60.2449 83.6873 60.1236 83.5487 59.9676 83.436C59.8116 83.3233 59.6253 83.2367 59.4086 83.176C59.2006 83.1067 58.9796 83.072 58.7456 83.072C58.1563 83.072 57.6926 83.2583 57.3546 83.631C57.0166 83.995 56.8476 84.476 56.8476 85.074V86.218C56.8476 86.816 57.0166 87.3013 57.3546 87.674C57.6926 88.038 58.1563 88.22 58.7456 88.22Z" fill="#00FFFF"/>
<path d="M10.9775 113V111.219H6.59654V110.257L10.3925 103.926H12.0175V110.309H13.3305V111.219H12.0175V113H10.9775ZM7.62354 110.309H10.9775V104.771H10.9125L7.62354 110.309Z" fill="#EEEDED"/>
</svg>
