<svg width="30" height="30" viewBox="0 0 30 30" fill="none" xmlns="http://www.w3.org/2000/svg">
<path d="M29.9274 29.4208C29.8331 29.6502 29.6502 29.8326 29.4201 29.9276C29.306 29.9756 29.1844 30 29.0628 30H22.5002C21.9816 30 21.5621 29.5807 21.5621 29.0626C21.5621 28.5446 21.9816 28.1252 22.5002 28.1252L26.7942 28.1205L18.0875 19.4124C17.7207 19.0466 17.7207 18.4534 18.0875 18.0867C18.4533 17.7209 19.0464 17.7209 19.4132 18.0867L28.2094 26.8842V22.4774C28.2094 21.9594 28.5442 21.5626 29.0628 21.5626C29.5804 21.5626 30 21.9819 30 22.5V29.0626C30 29.1848 29.9755 29.3061 29.9274 29.4208ZM29.0628 8.43738C28.5442 8.43738 28.2094 7.95224 28.2094 7.43419V3.11583L19.4132 11.9124C19.2293 12.0957 18.9898 12.1879 18.7504 12.1879C18.5099 12.1879 18.2704 12.0957 18.0875 11.9124C17.7207 11.5466 17.7207 10.9534 18.0875 10.5867L26.8809 1.79297H22.5521C22.0335 1.79297 21.5621 1.45449 21.5621 0.937383C21.5621 0.419331 21.9816 0 22.5002 0H29.0628C29.1844 0 29.306 0.0244453 29.4201 0.0723956C29.6502 0.167356 29.8331 0.349756 29.9274 0.579165C29.9755 0.69387 30 0.815156 30 0.937383V7.5C30 8.01711 29.5804 8.43738 29.0628 8.43738ZM3.20489 28.1205L7.49976 28.1252C8.01836 28.1252 8.437 28.5446 8.437 29.0626C8.437 29.5807 8.01836 30 7.49976 30H0.937235C0.815602 30 0.693969 29.9756 0.578936 29.9276C0.349813 29.8326 0.166892 29.6502 0.0716598 29.4208C0.0245152 29.3061 0 29.1848 0 29.0626V22.5C0 21.9819 0.419587 21.5626 0.937235 21.5626C1.45583 21.5626 1.80847 21.9594 1.80847 22.4774V26.8654L10.5868 18.0867C10.9536 17.7209 11.5467 17.7209 11.9125 18.0867C12.2793 18.4534 12.2793 19.0466 11.9125 19.4124L3.20489 28.1205ZM11.2496 12.1879C11.0102 12.1879 10.7697 12.0957 10.5868 11.9124L1.80847 3.1337V7.43419C1.80847 7.95224 1.45583 8.43738 0.937235 8.43738C0.419587 8.43738 0 8.01711 0 7.5V0.937383C0 0.815156 0.0245152 0.69387 0.0716598 0.579165C0.166892 0.349756 0.349813 0.167356 0.578936 0.0723956C0.693026 0.0244453 0.814659 0 0.935349 0C0.936292 0 0.936292 0 0.937235 0H7.49976C8.01836 0 8.437 0.419331 8.437 0.937383C8.437 1.45449 7.98441 1.79297 7.46582 1.79297H3.11909L11.9125 10.5867C12.2793 10.9534 12.2793 11.5466 11.9125 11.9124C11.7296 12.0957 11.4901 12.1879 11.2496 12.1879Z" fill="Gray" fill-opacity="0.86"/>
</svg>
